<mxfile host="app.diagrams.net" modified="2020-07-31T06:37:32.131Z" agent="5.0 (Windows NT 10.0; Win64; x64) AppleWebKit/537.36 (KHTML, like Gecko) Chrome/84.0.4147.105 Safari/537.36" etag="ThEWorE0DCC5u0cCHhTn" version="13.5.7" type="github">
  <diagram id="C5RBs43oDa-KdzZeNtuy" name="Page-1">
    <mxGraphModel dx="731" dy="403" grid="1" gridSize="10" guides="1" tooltips="1" connect="1" arrows="1" fold="1" page="1" pageScale="1" pageWidth="827" pageHeight="1169" math="0" shadow="0">
      <root>
        <mxCell id="WIyWlLk6GJQsqaUBKTNV-0" />
        <mxCell id="WIyWlLk6GJQsqaUBKTNV-1" parent="WIyWlLk6GJQsqaUBKTNV-0" />
        <mxCell id="eQT6mCWIJH2MH6zC0A-s-0" value="Menu (Login, Logout, Sign up, 등등 모든 접근)&lt;br&gt;About (Introduce)&lt;br&gt;login 이후에 apply 화면이 보이게 하기&lt;br&gt;Q&amp;amp;A 남기기" style="whiteSpace=wrap;html=1;aspect=fixed;strokeWidth=2;" vertex="1" parent="WIyWlLk6GJQsqaUBKTNV-1">
          <mxGeometry x="40" y="30" width="330" height="330" as="geometry" />
        </mxCell>
        <mxCell id="eQT6mCWIJH2MH6zC0A-s-1" value="Home.html" style="text;html=1;strokeColor=none;fillColor=none;align=center;verticalAlign=middle;whiteSpace=wrap;rounded=0;" vertex="1" parent="WIyWlLk6GJQsqaUBKTNV-1">
          <mxGeometry x="50" y="40" width="310" height="20" as="geometry" />
        </mxCell>
        <mxCell id="eQT6mCWIJH2MH6zC0A-s-2" value="Menu (Login, Logout, Sign up, 등등 모든 접근)&lt;br&gt;About (Introduce)&lt;span style=&quot;color: rgba(0 , 0 , 0 , 0) ; font-family: monospace ; font-size: 0px&quot;&gt;%3CmxGraphModel%3E%3Croot%3E%3CmxCell%20id%3D%220%22%2F%3E%3CmxCell%20id%3D%221%22%20parent%3D%220%22%2F%3E%3CmxCell%20id%3D%222%22%20value%3D%22Home.html%22%20style%3D%22text%3Bhtml%3D1%3BstrokeColor%3Dnone%3BfillColor%3Dnone%3Balign%3Dcenter%3BverticalAlign%3Dmiddle%3BwhiteSpace%3Dwrap%3Brounded%3D0%3B%22%20vertex%3D%221%22%20parent%3D%221%22%3E%3CmxGeometry%20x%3D%2250%22%20y%3D%2240%22%20width%3D%22310%22%20height%3D%2220%22%20as%3D%22geometry%22%2F%3E%3C%2FmxCell%3E%3C%2Froot%3E%3C%2FmxGraphModel%3E&lt;/span&gt;" style="whiteSpace=wrap;html=1;aspect=fixed;strokeWidth=2;" vertex="1" parent="WIyWlLk6GJQsqaUBKTNV-1">
          <mxGeometry x="400" y="30" width="330" height="330" as="geometry" />
        </mxCell>
        <mxCell id="eQT6mCWIJH2MH6zC0A-s-3" value="About.html" style="text;html=1;strokeColor=none;fillColor=none;align=center;verticalAlign=middle;whiteSpace=wrap;rounded=0;" vertex="1" parent="WIyWlLk6GJQsqaUBKTNV-1">
          <mxGeometry x="410" y="40" width="310" height="20" as="geometry" />
        </mxCell>
        <mxCell id="eQT6mCWIJH2MH6zC0A-s-4" value="저번에 했던 대로 그대로&lt;br&gt;&lt;br&gt;이름, 학과, 학번, 전화번호" style="whiteSpace=wrap;html=1;aspect=fixed;strokeWidth=2;" vertex="1" parent="WIyWlLk6GJQsqaUBKTNV-1">
          <mxGeometry x="40" y="380" width="330" height="330" as="geometry" />
        </mxCell>
        <mxCell id="eQT6mCWIJH2MH6zC0A-s-5" value="login, sign up page" style="text;html=1;strokeColor=none;fillColor=none;align=center;verticalAlign=middle;whiteSpace=wrap;rounded=0;" vertex="1" parent="WIyWlLk6GJQsqaUBKTNV-1">
          <mxGeometry x="50" y="390" width="310" height="20" as="geometry" />
        </mxCell>
        <mxCell id="eQT6mCWIJH2MH6zC0A-s-13" value="" style="edgeStyle=orthogonalEdgeStyle;rounded=0;orthogonalLoop=1;jettySize=auto;html=1;" edge="1" parent="WIyWlLk6GJQsqaUBKTNV-1" source="eQT6mCWIJH2MH6zC0A-s-6" target="eQT6mCWIJH2MH6zC0A-s-4">
          <mxGeometry relative="1" as="geometry" />
        </mxCell>
        <mxCell id="eQT6mCWIJH2MH6zC0A-s-6" value="지원 동기&lt;br&gt;만들고 싶은 웹사이트&lt;br&gt;&lt;span style=&quot;font-family: &amp;#34;poppins&amp;#34; , sans-serif ; background-color: rgb(255 , 255 , 255)&quot;&gt;&lt;font style=&quot;font-size: 12px&quot;&gt;동아리/단체 가입전과 유무 및 단체내 갈등 해결방법&lt;br&gt;&lt;/font&gt;&lt;/span&gt;&lt;span style=&quot;font-family: &amp;#34;poppins&amp;#34; , sans-serif ; background-color: rgb(255 , 255 , 255)&quot;&gt;&lt;font style=&quot;font-size: 12px&quot;&gt;“멋쟁이 사자처럼”에서 얻어가고 싶은 것&lt;/font&gt;&lt;/span&gt;&lt;span style=&quot;font-family: &amp;#34;poppins&amp;#34; , sans-serif ; background-color: rgb(255 , 255 , 255)&quot;&gt;&lt;br&gt;&lt;/span&gt;" style="whiteSpace=wrap;html=1;aspect=fixed;strokeWidth=2;" vertex="1" parent="WIyWlLk6GJQsqaUBKTNV-1">
          <mxGeometry x="400" y="380" width="330" height="330" as="geometry" />
        </mxCell>
        <mxCell id="eQT6mCWIJH2MH6zC0A-s-7" value="apply page" style="text;html=1;strokeColor=none;fillColor=none;align=center;verticalAlign=middle;whiteSpace=wrap;rounded=0;" vertex="1" parent="WIyWlLk6GJQsqaUBKTNV-1">
          <mxGeometry x="410" y="390" width="310" height="20" as="geometry" />
        </mxCell>
        <mxCell id="eQT6mCWIJH2MH6zC0A-s-8" value="&lt;span style=&quot;font-family: &amp;#34;poppins&amp;#34; , sans-serif ; background-color: rgb(255 , 255 , 255)&quot;&gt;Q&amp;amp;A에 들어온 게시글 확인&lt;br&gt;대답을 써줘야함&lt;br&gt;&lt;br&gt;지원서 확인페이지 -&amp;gt; 디테일하게 보는 페이지로 넘겨야함&lt;br&gt;&lt;/span&gt;" style="whiteSpace=wrap;html=1;aspect=fixed;strokeWidth=2;" vertex="1" parent="WIyWlLk6GJQsqaUBKTNV-1">
          <mxGeometry x="40" y="730" width="330" height="330" as="geometry" />
        </mxCell>
        <mxCell id="eQT6mCWIJH2MH6zC0A-s-9" value="Manager Page" style="text;html=1;strokeColor=none;fillColor=none;align=center;verticalAlign=middle;whiteSpace=wrap;rounded=0;" vertex="1" parent="WIyWlLk6GJQsqaUBKTNV-1">
          <mxGeometry x="50" y="740" width="310" height="20" as="geometry" />
        </mxCell>
        <mxCell id="eQT6mCWIJH2MH6zC0A-s-10" value="&lt;span style=&quot;font-family: &amp;#34;poppins&amp;#34; , sans-serif ; background-color: rgb(255 , 255 , 255)&quot;&gt;일반 유저랑 admin 둘 다 볼 수 있고,&lt;br&gt;CRUD 다 가능&lt;br&gt;&lt;/span&gt;" style="whiteSpace=wrap;html=1;aspect=fixed;strokeWidth=2;" vertex="1" parent="WIyWlLk6GJQsqaUBKTNV-1">
          <mxGeometry x="400" y="730" width="330" height="330" as="geometry" />
        </mxCell>
        <mxCell id="eQT6mCWIJH2MH6zC0A-s-12" value="Q&amp;amp;A 페이지" style="text;html=1;strokeColor=none;fillColor=none;align=center;verticalAlign=middle;whiteSpace=wrap;rounded=0;" vertex="1" parent="WIyWlLk6GJQsqaUBKTNV-1">
          <mxGeometry x="414" y="740" width="310" height="20" as="geometry" />
        </mxCell>
      </root>
    </mxGraphModel>
  </diagram>
</mxfile>
